<?xml version="1.0" encoding="UTF-8" standalone="no"?>
<!-- Created with Inkscape (http://www.inkscape.org/) -->

<svg
   xmlns:dc="http://purl.org/dc/elements/1.1/"
   xmlns:cc="http://creativecommons.org/ns#"
   xmlns:rdf="http://www.w3.org/1999/02/22-rdf-syntax-ns#"
   xmlns:svg="http://www.w3.org/2000/svg"
   xmlns="http://www.w3.org/2000/svg"
   version="1.1"
   width="118.21347"
   height="118.09875"
   id="svg2">
  <defs
     id="defs4" />
  <metadata
     id="metadata7">
    <rdf:RDF>
      <cc:Work
         rdf:about="">
        <dc:format>image/svg+xml</dc:format>
        <dc:type
           rdf:resource="http://purl.org/dc/dcmitype/StillImage" />
        <dc:title></dc:title>
      </cc:Work>
    </rdf:RDF>
  </metadata>
  <g
     transform="translate(-324.98692,-594.5954)"
     id="layer1">
    <g
       transform="matrix(1.25,0,0,-1.25,3.156625,1020.7119)"
       id="g2999">
      <g
         transform="translate(304.7178,340.8932)"
         id="g3277">
        <path
           d="m 0,0 c -14.034,-5.727 -27.505,-6.732 -40.283,-2.832 -1.321,0.44 -2.581,0.882 -3.839,1.322 -1.008,0.379 -2.016,0.819 -3.023,1.322 -0.88,-25.367 3.588,-46.39 13.471,-62.944 C -25.805,-76.35 -14.664,-86.799 0,-94.479 33.047,-77.105 48.783,-45.697 47.21,-0.188 34.243,-6.041 20.646,-6.732 6.296,-2.265 4.219,-1.572 2.142,-0.816 0,0"
           id="path3279"
           style="fill:#f47515;fill-opacity:1;fill-rule:nonzero;stroke:none" />
      </g>
      <g
         transform="translate(335.2607,334.5133)"
         id="g3281">
        <path
           d="m 0,0 -14.745,-64.781 c -1.522,-6.736 -3.487,-11.552 -5.901,-14.46 -2.417,-2.906 -5.635,-4.362 -9.654,-4.362 -4.018,0 -7.253,1.463 -9.7,4.389 -2.451,2.928 -4.435,7.735 -5.955,14.433 L -60.699,0 l 18.087,0 9.629,-43.612 c 0.371,-1.606 0.785,-3.66 1.241,-6.161 0.456,-2.507 0.936,-5.312 1.442,-8.412 0.677,4.021 1.209,7.146 1.597,9.381 0.389,2.243 0.715,3.973 0.989,5.192 L -18.039,0 0,0 z"
           id="path3283"
           style="fill:#e53721;fill-opacity:1;fill-rule:nonzero;stroke:none" />
      </g>
      <g
         transform="translate(269.5303,331.3854)"
         id="g3285">
        <path
           d="m 0,0 -2.392,-9.393 c -0.247,-0.976 -0.567,-1.675 -0.958,-2.096 -0.39,-0.423 -0.914,-0.634 -1.565,-0.634 -0.651,0 -1.176,0.213 -1.574,0.638 -0.397,0.424 -0.719,1.12 -0.966,2.092 L -9.846,0 -6.911,0 -5.35,-6.324 c 0.061,-0.233 0.126,-0.529 0.2,-0.894 0.075,-0.363 0.153,-0.768 0.235,-1.218 0.109,0.583 0.196,1.035 0.259,1.36 0.062,0.324 0.117,0.576 0.161,0.752 L -2.925,0 0,0 z"
           id="path3287"
           style="fill:#231f20;fill-opacity:1;fill-rule:nonzero;stroke:none" />
      </g>
      <g
         transform="translate(277.3633,319.4713)"
         id="g3289">
        <path
           d="m 0,0 -0.305,0 c -1.023,0 -1.921,0.084 -2.687,0.249 -0.767,0.167 -1.413,0.419 -1.94,0.757 -0.859,0.56 -1.523,1.271 -1.993,2.131 -0.467,0.859 -0.703,1.802 -0.703,2.83 0,1.024 0.233,1.965 0.698,2.82 0.466,0.854 1.132,1.56 1.998,2.121 0.527,0.338 1.173,0.59 1.94,0.758 0.766,0.166 1.664,0.248 2.687,0.248 l 0.305,0 0,-2.713 c -0.076,0.008 -0.157,0.012 -0.242,0.014 -0.086,0.003 -0.206,0.004 -0.366,0.004 -1.03,0 -1.85,-0.153 -2.458,-0.457 C -3.675,8.457 -4.108,7.986 -4.371,7.348 l 4.371,0 0,-2.662 -4.431,0 c 0.2,-0.657 0.621,-1.149 1.266,-1.479 0.646,-0.332 1.519,-0.494 2.615,-0.494 0.148,0 0.262,0.002 0.34,0.003 0.079,0.002 0.15,0.005 0.21,0.005 L 0,0 z"
           id="path3291"
           style="fill:#231f20;fill-opacity:1;fill-rule:nonzero;stroke:none" />
      </g>
      <g
         transform="translate(278.8584,331.3854)"
         id="g3293">
        <path
           d="m 0,0 2.936,0 0,-7.912 c 0,-0.405 0.102,-0.71 0.308,-0.916 0.205,-0.205 0.51,-0.307 0.916,-0.307 l 2.275,0 0,-2.779 -2.325,0 c -1.391,0 -2.424,0.326 -3.097,0.976 C 0.337,-10.285 0,-9.282 0,-7.929 L 0,0 z"
           id="path3295"
           style="fill:#231f20;fill-opacity:1;fill-rule:nonzero;stroke:none" />
      </g>
      <g
         transform="translate(288.8291,325.4527)"
         id="g3297">
        <path
           d="m 0,0 c 0,-0.892 0.299,-1.651 0.895,-2.278 0.597,-0.627 1.316,-0.941 2.154,-0.941 0.838,0 1.553,0.312 2.141,0.937 C 5.777,-1.657 6.071,-0.897 6.071,0 6.071,0.899 5.78,1.657 5.193,2.277 4.607,2.895 3.893,3.203 3.049,3.203 2.2,3.203 1.478,2.895 0.888,2.272 0.294,1.651 0,0.894 0,0 m -3,-0.015 c 0,0.827 0.151,1.61 0.456,2.35 0.305,0.741 0.746,1.41 1.328,2.01 0.575,0.582 1.227,1.024 1.955,1.332 0.729,0.304 1.499,0.457 2.31,0.457 0.811,0 1.583,-0.156 2.317,-0.467 C 6.102,5.358 6.753,4.91 7.322,4.328 7.888,3.751 8.32,3.091 8.621,2.349 8.922,1.604 9.073,0.816 9.073,-0.015 9.073,-0.853 8.922,-1.646 8.621,-2.396 8.32,-3.145 7.888,-3.805 7.322,-4.376 6.753,-4.964 6.102,-5.414 5.366,-5.724 4.632,-6.034 3.86,-6.19 3.049,-6.19 c -0.806,0 -1.573,0.156 -2.302,0.466 -0.728,0.31 -1.384,0.76 -1.963,1.348 -0.582,0.6 -1.023,1.268 -1.328,2.006 C -2.849,-1.632 -3,-0.847 -3,-0.015"
           id="path3299"
           style="fill:#231f20;fill-opacity:1;fill-rule:nonzero;stroke:none" />
      </g>
      <g
         transform="translate(299.1602,331.3854)"
         id="g3301">
        <path
           d="m 0,0 2.859,0 0,-7.57 c 0,-0.539 0.115,-0.951 0.342,-1.237 0.228,-0.285 0.552,-0.428 0.974,-0.428 0.427,0 0.753,0.143 0.978,0.428 0.225,0.286 0.336,0.698 0.336,1.237 l 0,7.57 2.828,0 0,-7.57 c 0,-0.539 0.112,-0.951 0.337,-1.237 0.225,-0.285 0.55,-0.428 0.978,-0.428 0.421,0 0.745,0.143 0.97,0.428 0.224,0.286 0.336,0.698 0.336,1.237 l 0,7.57 2.87,0 0,-7.38 c 0,-1.448 -0.381,-2.599 -1.139,-3.458 -0.759,-0.855 -1.772,-1.285 -3.037,-1.285 -0.506,0 -0.982,0.103 -1.434,0.313 -0.451,0.207 -0.885,0.519 -1.294,0.935 -0.413,-0.416 -0.844,-0.728 -1.295,-0.935 -0.453,-0.21 -0.93,-0.313 -1.434,-0.313 -1.261,0 -2.272,0.43 -3.033,1.29 C 0.38,-9.974 0,-8.822 0,-7.38 L 0,0 z"
           id="path3303"
           style="fill:#231f20;fill-opacity:1;fill-rule:nonzero;stroke:none" />
      </g>
      <g
         transform="translate(317.2246,325.4527)"
         id="g3305">
        <path
           d="m 0,0 c 0,-0.892 0.299,-1.651 0.897,-2.278 0.597,-0.627 1.314,-0.941 2.153,-0.941 0.839,0 1.552,0.312 2.14,0.937 0.589,0.625 0.884,1.385 0.884,2.282 0,0.899 -0.295,1.657 -0.88,2.277 C 4.608,2.895 3.893,3.203 3.05,3.203 2.199,3.203 1.479,2.895 0.888,2.272 0.297,1.651 0,0.894 0,0 m -2.999,-0.015 c 0,0.827 0.152,1.61 0.456,2.35 0.304,0.741 0.746,1.41 1.326,2.01 0.576,0.582 1.229,1.024 1.956,1.332 0.731,0.304 1.5,0.457 2.311,0.457 0.809,0 1.583,-0.156 2.317,-0.467 C 6.102,5.358 6.754,4.91 7.324,4.328 7.887,3.751 8.319,3.091 8.623,2.349 8.923,1.604 9.075,0.816 9.075,-0.015 9.075,-0.853 8.923,-1.646 8.623,-2.396 8.319,-3.145 7.887,-3.805 7.324,-4.376 6.754,-4.964 6.102,-5.414 5.367,-5.724 4.633,-6.034 3.859,-6.19 3.05,-6.19 c -0.807,0 -1.573,0.156 -2.301,0.466 -0.73,0.31 -1.385,0.76 -1.966,1.348 -0.58,0.6 -1.022,1.268 -1.326,2.006 -0.304,0.738 -0.456,1.523 -0.456,2.355"
           id="path3307"
           style="fill:#231f20;fill-opacity:1;fill-rule:nonzero;stroke:none" />
      </g>
      <g
         transform="translate(330.2354,325.4527)"
         id="g3309">
        <path
           d="m 0,0 c 0,-0.892 0.3,-1.651 0.896,-2.278 0.597,-0.627 1.315,-0.941 2.154,-0.941 0.837,0 1.552,0.312 2.14,0.937 0.589,0.625 0.885,1.385 0.885,2.282 0,0.899 -0.294,1.657 -0.88,2.277 C 4.608,2.895 3.893,3.203 3.05,3.203 2.198,3.203 1.479,2.895 0.888,2.272 0.296,1.651 0,0.894 0,0 m -3,-0.015 c 0,0.827 0.152,1.61 0.458,2.35 0.302,0.741 0.743,1.41 1.326,2.01 0.575,0.582 1.227,1.024 1.956,1.332 0.728,0.304 1.499,0.457 2.31,0.457 0.81,0 1.583,-0.156 2.317,-0.467 C 6.101,5.358 6.754,4.91 7.323,4.328 7.889,3.751 8.32,3.091 8.621,2.349 8.923,1.604 9.073,0.816 9.073,-0.015 9.073,-0.853 8.923,-1.646 8.621,-2.396 8.32,-3.145 7.889,-3.805 7.323,-4.376 6.754,-4.964 6.101,-5.414 5.367,-5.724 4.633,-6.034 3.86,-6.19 3.05,-6.19 c -0.807,0 -1.573,0.156 -2.302,0.466 -0.729,0.31 -1.383,0.76 -1.964,1.348 -0.583,0.6 -1.024,1.268 -1.326,2.006 C -2.848,-1.632 -3,-0.847 -3,-0.015"
           id="path3311"
           style="fill:#231f20;fill-opacity:1;fill-rule:nonzero;stroke:none" />
      </g>
      <g
         transform="translate(340.6494,319.4713)"
         id="g3313">
        <path
           d="m 0,0 0,11.914 2.16,0 c 1.147,0 2.048,-0.068 2.703,-0.211 0.66,-0.14 1.243,-0.373 1.752,-0.695 C 7.531,10.431 8.237,9.704 8.736,8.828 9.235,7.95 9.485,6.999 9.485,5.967 9.485,4.977 9.257,4.054 8.803,3.191 8.346,2.328 7.707,1.605 6.887,1.022 6.449,0.719 5.938,0.479 5.358,0.308 4.776,0.135 3.667,0.033 2.933,0 l 0,2.861 c 0.913,0.034 2.11,0.34 2.68,0.92 0.57,0.58 0.856,1.313 0.856,2.2 0,0.906 -0.303,1.652 -0.909,2.24 C 4.953,8.809 4.174,9.104 3.223,9.104 3.188,9.104 3.14,9.101 3.078,9.096 3.014,9.09 2.966,9.086 2.933,9.086 L 2.933,0 z"
           id="path3315"
           style="fill:#231f20;fill-opacity:1;fill-rule:nonzero;stroke:none" />
      </g>
      <g
         transform="translate(306.3916,284.3092)"
         id="g3359">
        <path
           d="m 0,0 c -0.978,0.065 -1.99,0.098 -2.969,0.13 -16.415,-0.292 -31.457,-4.698 -45.13,-13.183 l 0.881,-17.195 c 0.361,0.227 0.687,0.455 1.044,0.652 13.673,8.713 26.823,13.41 39.421,14.096 0.618,0.032 1.273,0.065 1.891,0.065 l 3.754,0 c 0.619,0 1.239,-0.033 1.858,-0.065 12.597,-0.686 26.4,-5.939 41.345,-15.729 l 0,18.176 C 31.784,-6.625 20.689,-2.577 8.811,-0.814 8.061,-0.718 7.312,-0.619 6.527,-0.521 5.124,-0.359 3.722,-0.228 2.284,-0.13 1.533,-0.064 0.784,-0.032 0,0"
           id="path3361"
           style="fill:#e54c1e;fill-opacity:1;fill-rule:nonzero;stroke:none" />
      </g>
      <g
         transform="translate(278.9951,275.3648)"
         id="g3363">
        <path
           d="m 0,0 c -0.072,-0.021 -0.151,-0.043 -0.236,-0.069 -0.086,-0.026 -0.213,-0.067 -0.383,-0.122 -1.195,-0.399 -2.037,-0.927 -2.527,-1.582 -0.487,-0.657 -0.592,-1.398 -0.318,-2.226 0.28,-0.837 0.813,-1.371 1.596,-1.602 0.785,-0.229 1.774,-0.146 2.971,0.252 0.168,0.057 0.295,0.1 0.383,0.132 0.087,0.032 0.162,0.057 0.229,0.08 L 2.47,-7.398 2.185,-7.491 c -0.956,-0.32 -1.816,-0.531 -2.575,-0.636 -0.76,-0.102 -1.432,-0.102 -2.013,0.01 -0.956,0.187 -1.767,0.555 -2.437,1.107 -0.672,0.552 -1.144,1.244 -1.424,2.077 -0.274,0.832 -0.313,1.667 -0.109,2.505 0.203,0.839 0.632,1.62 1.288,2.343 0.399,0.439 0.935,0.844 1.606,1.219 0.669,0.373 1.483,0.72 2.438,1.038 L -0.757,2.267 0,0 z"
           id="path3365"
           style="fill:#231f20;fill-opacity:1;fill-rule:nonzero;stroke:none" />
      </g>
      <g
         transform="translate(283.1064,278.8609)"
         id="g3367">
        <path
           d="m 0,0 0.698,-3.115 c 0.093,-0.408 0.263,-0.698 0.511,-0.87 0.25,-0.173 0.558,-0.219 0.925,-0.136 0.364,0.082 0.617,0.254 0.763,0.515 0.146,0.26 0.173,0.595 0.082,1.002 l -0.701,3.118 2.791,0.628 0.64,-2.85 C 5.919,-2.636 5.88,-3.452 5.596,-4.153 5.313,-4.854 4.779,-5.444 3.999,-5.926 L 4.772,-9.369 1.98,-9.997 1.203,-6.541 C 0.286,-6.434 -0.448,-6.13 -1,-5.625 -1.549,-5.118 -1.929,-4.399 -2.139,-3.47 L -2.777,-0.623 0,0 z"
           id="path3369"
           style="fill:#231f20;fill-opacity:1;fill-rule:nonzero;stroke:none" />
      </g>
      <g
         transform="translate(298.1689,278.7965)"
         id="g3371">
        <path
           d="m 0,0 c -0.075,-0.003 -0.158,-0.011 -0.246,-0.017 -0.089,-0.007 -0.222,-0.019 -0.399,-0.039 -1.253,-0.134 -2.189,-0.469 -2.806,-1.006 -0.616,-0.535 -0.879,-1.24 -0.785,-2.107 0.094,-0.878 0.5,-1.511 1.216,-1.904 0.717,-0.394 1.704,-0.521 2.957,-0.386 0.177,0.017 0.31,0.032 0.401,0.046 0.091,0.012 0.172,0.021 0.24,0.03 l 0.255,-2.372 -0.298,-0.03 c -1.001,-0.11 -1.885,-0.132 -2.648,-0.071 -0.768,0.06 -1.422,0.208 -1.967,0.44 -0.893,0.387 -1.608,0.918 -2.145,1.6 -0.536,0.684 -0.853,1.46 -0.945,2.333 -0.094,0.873 0.048,1.695 0.425,2.47 0.377,0.776 0.965,1.447 1.76,2.016 0.482,0.342 1.092,0.624 1.826,0.848 0.736,0.22 1.604,0.386 2.606,0.494 L -0.255,2.376 0,0 z"
           id="path3373"
           style="fill:#231f20;fill-opacity:1;fill-rule:nonzero;stroke:none" />
      </g>
      <g
         transform="translate(300.0957,281.1939)"
         id="g3375">
        <path
           d="M 0,0 2.887,0.036 2.972,-6.729 C 2.976,-7.075 3.081,-7.335 3.285,-7.507 3.49,-7.681 3.79,-7.764 4.188,-7.758 l 2.24,0.027 0.031,-2.375 -2.288,-0.031 C 2.802,-10.152 1.782,-9.888 1.114,-9.338 0.442,-8.79 0.101,-7.938 0.088,-6.78 L 0,0 z"
           id="path3377"
           style="fill:#231f20;fill-opacity:1;fill-rule:nonzero;stroke:none" />
      </g>
      <g
         transform="translate(314.5537,270.3609)"
         id="g3379">
        <path
           d="M 0,0 -0.298,0.031 C -1.3,0.133 -2.17,0.292 -2.906,0.51 -3.643,0.727 -4.254,1.007 -4.738,1.346 -5.533,1.907 -6.121,2.577 -6.506,3.355 -6.89,4.133 -7.035,4.959 -6.948,5.832 c 0.089,0.872 0.397,1.651 0.927,2.331 0.53,0.68 1.242,1.217 2.136,1.607 0.544,0.235 1.199,0.386 1.965,0.452 0.765,0.066 1.648,0.047 2.65,-0.055 L 1.027,10.136 0.793,7.829 C 0.72,7.841 0.642,7.853 0.559,7.863 0.474,7.874 0.355,7.888 0.2,7.902 -0.808,8.007 -1.623,7.957 -2.244,7.757 -2.865,7.559 -3.333,7.202 -3.643,6.685 L 0.635,6.25 0.404,3.985 -3.931,4.425 C -3.794,3.849 -3.424,3.389 -2.819,3.044 -2.216,2.698 -1.378,2.471 -0.306,2.362 -0.161,2.348 -0.05,2.337 0.029,2.332 0.107,2.326 0.177,2.319 0.235,2.314 L 0,0 z"
           id="path3381"
           style="fill:#231f20;fill-opacity:1;fill-rule:nonzero;stroke:none" />
      </g>
      <g
         transform="translate(316.001,270.148)"
         id="g3383">
        <path
           d="M 0,0 1.472,6.495 C 1.715,7.572 2.285,8.358 3.179,8.854 4.073,9.349 5.121,9.46 6.325,9.188 7.425,8.94 8.292,8.444 8.936,7.703 9.576,6.962 9.809,6.196 9.629,5.405 9.516,4.9 9.25,4.494 8.837,4.184 8.425,3.873 7.911,3.701 7.295,3.665 8,3.434 8.472,3.124 8.713,2.735 8.954,2.349 8.998,1.819 8.847,1.147 L 8.165,-1.864 5.356,-1.229 5.901,1.173 C 6.021,1.695 5.976,2.084 5.766,2.334 5.559,2.585 5.095,2.792 4.375,2.956 L 4.114,3.016 4.618,5.242 5.036,5.147 C 5.489,5.046 5.848,5.046 6.115,5.151 6.381,5.256 6.552,5.464 6.621,5.774 6.681,6.042 6.634,6.286 6.475,6.507 6.318,6.728 6.092,6.87 5.798,6.937 5.415,7.025 5.091,6.972 4.826,6.778 4.561,6.585 4.38,6.27 4.279,5.829 L 2.813,-0.638 0,0 z"
           id="path3385"
           style="fill:#231f20;fill-opacity:1;fill-rule:nonzero;stroke:none" />
      </g>
      <g
         transform="translate(331.2959,276.6568)"
         id="g3387">
        <path
           d="m 0,0 -1.026,-3.024 c -0.132,-0.397 -0.14,-0.733 -0.018,-1.011 0.122,-0.275 0.362,-0.475 0.719,-0.596 0.353,-0.12 0.658,-0.106 0.921,0.041 0.258,0.148 0.456,0.418 0.59,0.815 l 1.027,3.024 2.71,-0.918 -0.938,-2.764 C 3.68,-5.336 3.222,-6.013 2.614,-6.462 2.005,-6.913 1.244,-7.14 0.327,-7.144 l -1.135,-3.341 -2.709,0.92 1.137,3.355 c -0.728,0.566 -1.196,1.211 -1.402,1.93 -0.205,0.717 -0.156,1.529 0.151,2.431 L -2.694,0.914 0,0 z"
           id="path3389"
           style="fill:#231f20;fill-opacity:1;fill-rule:nonzero;stroke:none" />
      </g>
      <g
         transform="translate(296.7109,294.3463)"
         id="g3391">
        <path
           d="m 0,0 c 0.061,0.189 0.118,0.379 0.181,0.581 0.14,-0.28 0.334,-0.536 0.587,-0.78 L 0,0 z M 0.539,2.442 C 0.55,2.609 0.55,2.754 0.563,2.921 0.708,3.245 0.912,3.523 1.199,3.779 1.463,4.035 1.764,4.228 2.1,4.361 L 2.641,2.309 c -0.013,0 -0.013,0 -0.013,-0.012 C 2.603,2.286 2.591,2.273 2.568,2.252 l -2.029,0.19 z m 0.024,1.427 c 0,0.211 -0.013,0.412 -0.036,0.6 L 1.319,4.525 C 1.151,4.414 0.984,4.281 0.839,4.147 0.73,4.057 0.647,3.969 0.563,3.869 m 2.426,0.68 C 3.048,4.56 3.119,4.56 3.192,4.56 3.9,4.56 4.513,4.349 5.027,3.924 L 3.479,2.676 2.989,4.549 z M 3.912,1.405 5.931,1.193 C 5.808,0.771 5.556,0.401 5.197,0.066 4.645,-0.455 3.972,-0.713 3.192,-0.713 2.412,-0.713 1.75,-0.455 1.199,0.066 0.755,0.47 0.479,0.936 0.395,1.484 0.42,1.57 0.433,1.65 0.443,1.738 L 2.447,1.55 C 2.483,1.473 2.542,1.405 2.628,1.36 2.796,1.226 3.001,1.16 3.239,1.16 c 0.24,0 0.444,0.066 0.614,0.2 0.01,0.011 0.034,0.025 0.059,0.045 M 5.735,3.109 C 5.916,2.775 6.014,2.419 6.025,2.028 L 4.8,2.342 5.735,3.109 z m -16.983,0.727 c 0.132,0 0.241,-0.057 0.337,-0.134 0.096,-0.09 0.142,-0.2 0.142,-0.312 0,-0.136 -0.046,-0.233 -0.142,-0.314 -0.096,-0.098 -0.205,-0.133 -0.337,-0.133 -0.134,0 -0.24,0.035 -0.336,0.133 -0.096,0.081 -0.142,0.178 -0.142,0.314 0,0.112 0.046,0.222 0.142,0.312 0.096,0.077 0.202,0.134 0.336,0.134 m 0.984,-0.389 0.277,0.389 9.447,0.564 c 0.021,-0.32 0.047,-0.664 0.047,-1.01 0,-0.289 -0.026,-0.58 -0.036,-0.859 l -9.735,0.916 z m -0.264,-0.706 c 0.026,0.025 0.037,0.034 0.037,0.047 L -0.611,1.84 C -0.71,1.296 -0.841,0.771 -1.021,0.268 l -9.507,2.473 z m -7.61,7.425 c 2.03,1.873 4.453,2.797 7.311,2.797 1.943,0 3.695,-0.422 5.245,-1.303 l -5.45,-7.524 c 0.025,0.011 -0.012,0.034 -0.096,0.034 l -0.035,0 c -0.12,0 -0.219,-0.023 -0.3,-0.056 -0.133,-0.034 -0.24,-0.092 -0.348,-0.19 -0.168,-0.168 -0.254,-0.367 -0.254,-0.589 0,-0.226 0.086,-0.425 0.254,-0.594 0.145,-0.132 0.323,-0.21 0.502,-0.245 l 0.133,0 0.013,0 -0.013,-0.02 9.988,-2.631 C -1.691,-1.349 -2.473,-2.418 -3.53,-3.4 c -2.006,-1.872 -4.441,-2.808 -7.297,-2.808 -2.858,0 -5.281,0.936 -7.311,2.808 -2.004,1.873 -3.01,4.134 -3.01,6.79 0,2.641 1.006,4.904 3.01,6.776 m 15.387,0.725 c -0.454,0.425 -0.922,0.803 -1.427,1.148 L -1.081,16.397 1.931,4.972 0.479,4.884 c -0.312,2.296 -1.38,4.292 -3.23,6.007 m -2.039,0.277 c 0.443,-0.289 0.851,-0.624 1.26,-1.002 1.644,-1.514 2.629,-3.298 2.929,-5.35 l -9.076,-0.546 0,-0.011 -0.009,0 0.009,0.011 4.887,6.898 z m 25.626,0.393 1.717,-3.702 c 0.06,-0.146 0.12,-0.299 0.179,-0.434 0.876,-1.928 1.802,-3.689 2.784,-5.287 l 0,-0.063 c 0,-0.112 0.049,-0.213 0.157,-0.292 0.097,-0.09 0.218,-0.122 0.359,-0.122 l 0.063,0 c 0.12,0 0.226,0.032 0.312,0.122 0.105,0.079 0.165,0.18 0.165,0.292 0,0.124 -0.06,0.222 -0.165,0.301 -0.073,0.066 -0.171,0.12 -0.278,0.12 -0.983,1.618 -1.91,3.445 -2.76,5.508 l -1.739,3.902 c 0.334,0.144 0.683,0.256 1.043,0.356 l 0.181,-0.613 0.647,0.134 -0.203,0.623 c 0.755,0.157 1.534,0.235 2.364,0.235 2.857,0 5.293,-0.936 7.296,-2.809 2.018,-1.862 3.037,-4.123 3.037,-6.777 0,-2.654 -1.019,-4.904 -3.037,-6.789 -2.003,-1.862 -4.439,-2.796 -7.296,-2.796 -2.858,0 -5.295,0.934 -7.31,2.796 -2.006,1.885 -3.025,4.135 -3.025,6.789 0,2.654 1.019,4.915 3.025,6.777 0.768,0.712 1.596,1.283 2.484,1.729 m 0.372,1.271 0.107,0.011 c -0.033,0 -0.071,-0.011 -0.096,-0.025 l -0.011,0.014 z M 18.327,16.854 19.048,15.293 5.448,4.27 C 4.812,4.804 4.079,5.062 3.215,5.062 c -0.13,0 -0.252,0 -0.371,-0.023 l -3.145,11.815 18.628,0 z m 2.159,2.687 c 0.014,0.01 0.026,0.01 0.026,0.01 -0.012,-0.022 -0.047,-0.044 -0.121,-0.067 0.038,0.023 0.074,0.045 0.095,0.057 m -2.243,-0.034 -0.071,0.313 1.404,-0.057 c 0.132,-0.167 0.335,-0.256 0.575,-0.279 -1.163,-0.992 -0.575,-2.828 1.778,-5.517 l 0.022,-0.043 -0.599,-0.145 c 0.096,-0.121 0.157,-0.267 0.157,-0.445 0,-0.113 0,-0.169 -0.013,-0.203 -0.025,-0.11 -0.107,-0.168 -0.227,-0.168 -0.05,0 -0.145,0.147 -0.277,0.425 l -0.144,0.278 -0.11,0.223 0.063,0.01 c 0.011,0.068 0.035,0.103 0.071,0.124 l -0.108,0.213 -0.157,-0.068 -1.883,4.236 0.205,0.055 -0.085,0.281 -0.24,-0.058 -0.096,0.203 -0.12,-0.024 -0.061,0.28 c -0.073,0.143 -0.096,0.265 -0.084,0.366 m 9.147,2.743 c -0.587,-0.423 -1.271,-0.668 -2.065,-0.703 -0.253,0.023 -1.092,0.1 -2.496,0.212 -1.32,0.112 -2.279,-0.269 -2.868,-1.124 -0.253,0.054 -0.41,0 -0.491,-0.17 l -2.068,0.258 c -0.37,-0.267 -0.479,-0.535 -0.322,-0.815 l 0.683,-1.168 -0.121,-0.033 0.087,-0.215 -0.29,-0.064 0.156,-0.348 0.156,0.045 0.119,-0.29 -18.41,0 -0.182,0.636 -0.047,-0.022 -0.157,0.68 -0.011,0 -0.168,0.691 0.013,0 -0.481,1.995 -0.073,-0.01 0.038,0.01 c 0,0 0.009,0 0.009,0.012 l 0.026,0 c 0.084,0.008 0.155,0.021 0.251,0.044 0.012,0 0.038,0 0.06,0.011 0.973,0.112 1.741,0.143 2.283,0.079 0.106,0 0.203,-0.014 0.287,-0.014 l 0,-0.009 c 0.792,-0.179 1.418,-0.111 1.896,0.222 0.169,0.793 -2.87,1.028 -9.098,0.724 -0.481,-0.187 -0.637,-0.39 -0.481,-0.646 0.109,-0.111 0.216,-0.221 0.35,-0.334 0.287,-0.233 0.61,-0.447 0.983,-0.634 0,0 0.012,-0.013 0.025,-0.022 0.586,-0.28 1.188,-0.293 1.787,-0.012 0.072,0.034 0.143,0.077 0.228,0.11 0.204,0.111 0.372,0.168 0.481,0.179 l 1.057,-3.221 c -0.074,0 -0.109,0.034 -0.144,0.057 -0.061,0.053 -0.121,0.067 -0.194,0.067 -0.07,0 -0.132,-0.014 -0.192,-0.067 -0.047,-0.057 -0.083,-0.114 -0.083,-0.181 0,-0.064 0.036,-0.121 0.083,-0.178 0.06,-0.045 0.122,-0.078 0.192,-0.078 0.073,0 0.133,0.033 0.194,0.078 0.035,0.033 0.058,0.078 0.07,0.114 l 0.17,-0.614 -3.602,-4.982 c -1.717,0.968 -3.649,1.447 -5.799,1.447 -3.132,0 -5.808,-1.014 -8.029,-3.076 -2.207,-2.062 -3.314,-4.547 -3.314,-7.444 0,-2.922 1.107,-5.398 3.314,-7.458 2.221,-2.053 4.897,-3.079 8.029,-3.079 3.133,0 5.799,1.026 8.018,3.079 1.166,1.079 2.029,2.273 2.583,3.589 L 2.135,-1.023 C 2.22,-1.059 2.302,-1.07 2.4,-1.093 2.652,-1.159 2.929,-1.18 3.215,-1.18 c 0.925,0 1.716,0.311 2.377,0.912 0.433,0.414 0.733,0.881 0.888,1.405 L 7.825,0.993 6.912,-0.065 7.765,-0.244 9.492,1.738 8.784,2.297 8.209,1.473 6.576,1.896 l 0,0.043 c 0,0.557 -0.144,1.059 -0.407,1.508 l 13.323,10.742 0.227,-0.389 -0.131,-0.054 0.082,-0.214 0.218,0.079 0.527,-1.161 C 19.442,11.973 18.532,11.338 17.691,10.557 15.484,8.506 14.379,6.021 14.379,3.109 c 0,-2.906 1.105,-5.395 3.312,-7.445 2.22,-2.06 4.898,-3.087 8.029,-3.087 3.132,0 5.81,1.027 8.021,3.087 2.221,2.05 3.323,4.539 3.323,7.445 0,2.912 -1.102,5.397 -3.323,7.448 -2.211,2.062 -4.889,3.088 -8.021,3.088 -1.031,0 -2.029,-0.113 -2.963,-0.346 l 0.192,0.392 -0.3,0.409 -0.397,-0.098 c -2.425,2.596 -3.097,4.39 -2.003,5.361 0.263,-0.067 0.502,-0.134 0.718,-0.19 0.252,-0.079 0.613,-0.155 1.082,-0.226 l 0.01,0 c 0.013,-0.053 0.024,-0.109 0.075,-0.152 0.059,-0.055 0.118,-0.088 0.19,-0.088 0.086,0 0.144,0.033 0.193,0.088 0.046,0.056 0.072,0.111 0.072,0.188 0,0.09 -0.026,0.146 -0.072,0.212 -0.049,0.045 -0.107,0.068 -0.193,0.068 -0.072,0 -0.131,-0.023 -0.19,-0.068 -0.051,-0.054 -0.075,-0.122 -0.085,-0.189 l -1.189,0.703 c 0.073,0.078 0.107,0.155 0.107,0.246 l 0.205,0.344 c 0.337,0.625 1.429,0.838 3.277,0.613 0.96,-0.089 1.92,0.043 2.868,0.381 0.059,0.031 0.122,0.053 0.18,0.089 l 0.216,0.108 c 0.459,0.258 0.624,0.492 0.491,0.694 -0.156,0.177 -0.431,0.199 -0.814,0.066"
           id="path3393"
           style="fill:#231f20;fill-opacity:1;fill-rule:nonzero;stroke:none" />
      </g>
    </g>
  </g>
</svg>
